# xmcd
# 
# Track frame offsets:
#     150
#     5894
#     18275
#     30938
#     51645
#     57526
#     83470
#     101581
#     119304
#     140354
#     150779
#     163057
#     184446
#     203620
# 
# Disc length: 2976
# 
# Revision: 5
# Processed by: cddbd v1.5.2PL0 Copyright (c) Steve Scherf et al.
# Submitted via: fre:ac v1.1beta1pre4
# 
DISCID=b00b9e0e
DTITLE=David Crowder*Band - Give Us Rest or (A Requiem Mass in C [TheHappiest of All Keys]) [CD2]
DYEAR=2012
DGENRE=Folk-influenced American Rock
TTITLE0=Reprise #2
TTITLE1=Oh My God
TTITLE2=I Am A Seed
TTITLE3=After All (Holy)
TTITLE4=The Great Amen
TTITLE5=There Is A Sound
TTITLE6=Oh, Great Love Of God
TTITLE7=Our Communion
TTITLE8=Sometimes
TTITLE9=A Return
TTITLE10=Oh, My God I'm Coming Home
TTITLE11=Leaning On The Everlasting Arms~'Tis So Sweet To Trust In Jesus
TTITLE12=Jesus Lead Me To Your Healing Waters
TTITLE13=Because He Lives
EXTD=
EXTT0=
EXTT1=
EXTT2=
EXTT3=
EXTT4=
EXTT5=
EXTT6=
EXTT7=
EXTT8=
EXTT9=
EXTT10=
EXTT11=
EXTT12=
EXTT13=
PLAYORDER=
